<?xml version="1.0" encoding="utf-8"?>
<?xml-stylesheet type="text/xsl" href="rss1.xsl"?>
<rss version="2.0" xmlns:atom="http://www.w3.org/2005/Atom" xmlns:content="http://purl.org/rss/1.0/modules/content/" xmlns:dc="http://purl.org/dc/elements/1.1/" xmlns:media="http://search.yahoo.com/mrss/">
<channel>
 <title>Getty</title>
 <link>http://www.gettyimg.com/</link>
 <atom:link href="http://www.gettyimg.com/" rel="self" type="application/rss+xml" />

 
                <item>
                <title><![CDATA[【Requests】[REQ AUD] - A. G. Cook - Britpop (2024) in 24-bit FLAC]]></title>
                <link><![CDATA[https://sharemania.us/threads/a-g-cook-britpop-2024-in-24-bit-flac.249094/]]></link>
                <description><![CDATA[<article>
<blockquote class="messageText SelectQuoteContainer ugc baseHtml">
<a href="https://music.apple.com/us/album/britpop/1743823674" target="_blank" class="externalLink" rel="nofollow">https://music.apple.com/us/album/britpop/1743823674<br>
</a><br>
Thank you!
<div class="messageTextEndMarker">&nbsp;</div>
</blockquote>
</article>]]></description>
                <author><![CDATA[supra382]]></author>
                </item>

                
                <item>
                <title><![CDATA[【Apple Music】WEB-RiP - Miyo - Będzie Lepiej (feat. Tymek) (1080p)]]></title>
                <link><![CDATA[https://sharemania.us/threads/miyo-b%C4%99dzie-lepiej-feat-tymek-1080p.249095/]]></link>
                <description><![CDATA[<article>
<blockquote class="messageText SelectQuoteContainer ugc baseHtml">
<img src="https://i.postimg.cc/DfXDd3Jx/Miyo-B-dzie-Lepiej-feat-Tymek-mp4.jpg" class="bbCodeImage LbImage" alt="[​IMG]" data-url="https://i.postimg.cc/DfXDd3Jx/Miyo-B-dzie-Lepiej-feat-Tymek-mp4.jpg" style=""><br>
<br>
<div class="bbCodeBlock bbCodeCode">
<div class="type">Code:</div>
<pre>General
Complete name                  : G:\Новая папка\Miyo - Będzie Lepiej (feat. Tymek).mp4
Format                         : MPEG-4
Format profile                 : Base Media
Codec ID                       : isom (isom/iso2/avc1/mp41)
File size                      : 228 MiB
Duration                       : 3 min 19 s
Overall bit rate               : 9 556 kb/s
Frame rate                     : 25.000 FPS
Movie name                     : Będzie Lepiej (feat. Tymek)
Performer                      : Miyo
Genre                          : Hip-Hop/Rap
ContentType                    : Music Video
Recorded date                  : 2019-08-12 07:00:00 UTC
Writing application            : Lavf56.30.100
Copyright                      : ℗ (C) 2019 Sony Music Entertainment Poland Sp. z o. o. na wylacznej licencji MIYO

Video
ID                             : 1
Format                         : AVC
Format/Info                    : Advanced Video Codec
Format profile                 : High@L4.1
Format settings                : CABAC / 4 Ref Frames
Format settings, CABAC         : Yes
Format settings, Reference fra : 4 frames
Format settings, Slice count   : 8 slices per frame
Codec ID                       : avc1
Codec ID/Info                  : Advanced Video Coding
Duration                       : 3 min 19 s
Bit rate                       : 9 292 kb/s
Width                          : 1 920 pixels
Height                         : 912 pixels
Display aspect ratio           : 2.105
Frame rate mode                : Constant
Frame rate                     : 25.000 FPS
Color space                    : YUV
Chroma subsampling             : 4:2:0
Bit depth                      : 8 bits
Scan type                      : Progressive
Bits/(Pixel*Frame)             : 0.212
Stream size                    : 221 MiB (97%)
Color range                    : Limited
Color primaries                : BT.709
Transfer characteristics       : BT.709
Matrix coefficients            : BT.709
Codec configuration box        : avcC

Audio
ID                             : 2
Format                         : AAC LC
Format/Info                    : Advanced Audio Codec Low Complexity
Codec ID                       : mp4a-40-2
Duration                       : 3 min 19 s
Duration_LastFrame             : -1 ms
Bit rate mode                  : Constant
Bit rate                       : 265 kb/s
Channel(s)                     : 2 channels
Channel layout                 : L R
Sampling rate                  : 48.0 kHz
Frame rate                     : 46.875 FPS (1024 SPF)
Compression mode               : Lossy
Stream size                    : 6.19 MiB (3%)
Default                        : Yes
Alternate group                : 1

</pre>
</div>
<div class="bbCodeBlock bbCodeCode">
<div class="type">Code:</div>
<pre>https://drive.google.com/file/d/1Okd_QVLcddnMMc1LSW5cuBTcNX4W3Ifa/view?usp=sharing</pre>
</div>
<div class="messageTextEndMarker">&nbsp;</div>
</blockquote>
</article>]]></description>
                <author><![CDATA[vitalya3]]></author>
                </item>

                
                <item>
                <title><![CDATA[【Apple Music】WEB-RiP - Jerome &amp; Paul Elstak - Faith (1080p)]]></title>
                <link><![CDATA[https://sharemania.us/threads/jerome-paul-elstak-faith-1080p.249089/]]></link>
                <description><![CDATA[<article>
<blockquote class="messageText SelectQuoteContainer ugc baseHtml">
<img src="https://i.postimg.cc/d3jc52fs/Jerome-Paul-Elstak-Faith-mp4.jpg" class="bbCodeImage LbImage" alt="[​IMG]" data-url="https://i.postimg.cc/d3jc52fs/Jerome-Paul-Elstak-Faith-mp4.jpg" style=""><br>
<br>
<div class="bbCodeBlock bbCodeCode">
<div class="type">Code:</div>
<pre>General
Complete name                  : G:\Новая папка\Jerome &amp; Paul Elstak - Faith.mp4
Format                         : MPEG-4
Format profile                 : Base Media
Codec ID                       : isom (isom/iso2/avc1/mp41)
File size                      : 199 MiB
Duration                       : 2 min 47 s
Overall bit rate               : 9 991 kb/s
Frame rate                     : 25.000 FPS
Movie name                     : Faith
Performer                      : Jerome &amp; Paul Elstak
Genre                          : Dance
ContentType                    : Music Video
Recorded date                  : 2023-06-09 07:00:00 UTC
Writing application            : Lavf56.30.100
Copyright                      : ℗ 2023 Kontor Records GmbH

Video
ID                             : 1
Format                         : AVC
Format/Info                    : Advanced Video Codec
Format profile                 : High@L4
Format settings                : CABAC / 4 Ref Frames
Format settings, CABAC         : Yes
Format settings, Reference fra : 4 frames
Format settings, Slice count   : 8 slices per frame
Codec ID                       : avc1
Codec ID/Info                  : Advanced Video Coding
Duration                       : 2 min 47 s
Bit rate                       : 9 729 kb/s
Width                          : 1 920 pixels
Height                         : 1 080 pixels
Display aspect ratio           : 16:9
Frame rate mode                : Constant
Frame rate                     : 25.000 FPS
Color space                    : YUV
Chroma subsampling             : 4:2:0
Bit depth                      : 8 bits
Scan type                      : Progressive
Bits/(Pixel*Frame)             : 0.188
Stream size                    : 194 MiB (97%)
Color range                    : Limited
Color primaries                : BT.709
Transfer characteristics       : BT.709
Matrix coefficients            : BT.709
Codec configuration box        : avcC

Audio
ID                             : 2
Format                         : AAC LC
Format/Info                    : Advanced Audio Codec Low Complexity
Codec ID                       : mp4a-40-2
Duration                       : 2 min 47 s
Duration_LastFrame             : -15 ms
Bit rate mode                  : Constant
Bit rate                       : 259 kb/s
Channel(s)                     : 2 channels
Channel layout                 : L R
Sampling rate                  : 48.0 kHz
Frame rate                     : 46.875 FPS (1024 SPF)
Compression mode               : Lossy
Stream size                    : 5.16 MiB (3%)
Default                        : Yes
Alternate group                : 1

</pre>
</div>
<div class="bbCodeBlock bbCodeVfcHH HiddenContent">
<div class="attribution type">Hidden Content:</div>
<blockquote>You must either reply or click 'Like' to see the hidden information contained here.</blockquote>
</div>
<div class="messageTextEndMarker">&nbsp;</div>
</blockquote>
</article>]]></description>
                <author><![CDATA[vitalya3]]></author>
                </item>

                
                <item>
                <title><![CDATA[【Cinema Center】SERIES - Dynasty S01 1080p NF WEB-DL Latino.Inglés (Multi Subs)]]></title>
                <link><![CDATA[https://sharemania.us/threads/dynasty-s01-1080p-nf-web-dl-latino-ingl%C3%A9s-multi-subs.249091/]]></link>
                <description><![CDATA[<article>
<blockquote class="messageText SelectQuoteContainer ugc baseHtml">
<img src="https://images2.imgbox.com/3a/55/fCPwLCvF_o.jpg" class="bbCodeImage LbImage" alt="[​IMG]" data-url="https://images2.imgbox.com/3a/55/fCPwLCvF_o.jpg" style=""> <br>
<br>
<img src="https://i.imgur.com/fuzXr6X.png" class="bbCodeImage LbImage" alt="[​IMG]" data-url="https://i.imgur.com/fuzXr6X.png" style=""> <br>
Esta nueva versión de la clásica novela revela la lucha de Carrington y los Colby por el control de su fortuna... y de sus hijos.<br>
Fuente video: WEB-DL H264 1080p (WEB-DL, AVC Main@L4)<br>
Fuente audios: WEB-DL EAC3 5.1 a 640 kb/s<br>
Fuente audios: WEB-DL EAC3 5.1 a 640 kb/s<br>
Idiomas audios: Latino, Inglés<br>
Formato de subtítulos: SubRip (.srt)<br>
Idiomas subtitulos: Todos los Disponibles en Netflix<br>
Fuente: Netflix<br>
<br>
Capturas<br>
<br>
<img src="https://images2.imgbox.com/c9/fa/Ohk98VBL_o.png" class="bbCodeImage LbImage" alt="[​IMG]" data-url="https://images2.imgbox.com/c9/fa/Ohk98VBL_o.png" style=""> <img src="https://images2.imgbox.com/aa/2e/kZS5IyRa_o.png" class="bbCodeImage LbImage" alt="[​IMG]" data-url="https://images2.imgbox.com/aa/2e/kZS5IyRa_o.png" style=""> <br>
<br>
Descargar:<br>
<br>
<div class="bbCodeBlock bbCodeVfcHH HiddenContent">
<div class="attribution type">Hidden Content:</div>
<blockquote>You must reply before you can see the hidden data contained here.</blockquote>
</div>
<div class="messageTextEndMarker">&nbsp;</div>
</blockquote>
</article>]]></description>
                <author><![CDATA[Trevor]]></author>
                </item>

                
                <item>
                <title><![CDATA[【Apple Music】WEB-RiP - Margaret - Roadster (feat. Kizo) (1080p)]]></title>
                <link><![CDATA[https://sharemania.us/threads/margaret-roadster-feat-kizo-1080p.249092/]]></link>
                <description><![CDATA[<article>
<blockquote class="messageText SelectQuoteContainer ugc baseHtml">
<img src="https://i.postimg.cc/rmLyVCvT/Margaret-Roadster-feat-Kizo-mp4.jpg" class="bbCodeImage LbImage" alt="[​IMG]" data-url="https://i.postimg.cc/rmLyVCvT/Margaret-Roadster-feat-Kizo-mp4.jpg" style=""><br>
<br>
<div class="bbCodeBlock bbCodeCode">
<div class="type">Code:</div>
<pre>General
Complete name                  : G:\Новая папка\Margaret - Roadster (feat. Kizo).mp4
Format                         : MPEG-4
Format profile                 : Base Media
Codec ID                       : isom (isom/iso2/avc1/mp41)
File size                      : 125 MiB
Duration                       : 2 min 35 s
Overall bit rate               : 6 751 kb/s
Frame rate                     : 25.000 FPS
Movie name                     : Roadster (feat. Kizo)
Performer                      : Margaret
Genre                          : Hip-Hop/Rap
ContentType                    : Music Video
Recorded date                  : 2020-09-12 07:00:00 UTC
Writing application            : Lavf56.30.100
Copyright                      : ℗ (C) 2020 Sony Music Entertainment Poland Sp. z o. o. na wylacznej licencji Gaja Hornby Records

Video
ID                             : 1
Format                         : AVC
Format/Info                    : Advanced Video Codec
Format profile                 : High@L4
Format settings                : CABAC / 4 Ref Frames
Format settings, CABAC         : Yes
Format settings, Reference fra : 4 frames
Format settings, Slice count   : 8 slices per frame
Codec ID                       : avc1
Codec ID/Info                  : Advanced Video Coding
Duration                       : 2 min 35 s
Bit rate                       : 6 491 kb/s
Width                          : 1 920 pixels
Height                         : 1 080 pixels
Display aspect ratio           : 16:9
Frame rate mode                : Constant
Frame rate                     : 25.000 FPS
Color space                    : YUV
Chroma subsampling             : 4:2:0
Bit depth                      : 8 bits
Scan type                      : Progressive
Bits/(Pixel*Frame)             : 0.125
Stream size                    : 120 MiB (96%)
Color range                    : Limited
Color primaries                : BT.709
Transfer characteristics       : BT.709
Matrix coefficients            : BT.709
Codec configuration box        : avcC

Audio
ID                             : 2
Format                         : AAC LC
Format/Info                    : Advanced Audio Codec Low Complexity
Codec ID                       : mp4a-40-2
Duration                       : 2 min 35 s
Duration_LastFrame             : -20 ms
Bit rate mode                  : Constant
Bit rate                       : 257 kb/s
Channel(s)                     : 2 channels
Channel layout                 : L R
Sampling rate                  : 48.0 kHz
Frame rate                     : 46.875 FPS (1024 SPF)
Compression mode               : Lossy
Stream size                    : 4.76 MiB (4%)
Default                        : Yes
Alternate group                : 1

</pre>
</div>
<div class="bbCodeBlock bbCodeVfcHH HiddenContent">
<div class="attribution type">Hidden Content:</div>
<blockquote>You must either reply or click 'Like' to see the hidden information contained here.</blockquote>
</div>
<div class="messageTextEndMarker">&nbsp;</div>
</blockquote>
</article>]]></description>
                <author><![CDATA[vitalya3]]></author>
                </item>

                
                <item>
                <title><![CDATA[【Documentaries】WEB-RiP - The Show - The Weeknd 2021 Reup]]></title>
                <link><![CDATA[https://sharemania.us/threads/the-show-the-weeknd-2021-reup.249093/]]></link>
                <description><![CDATA[<article>
<blockquote class="messageText SelectQuoteContainer ugc baseHtml">
Hi, could anyone who had this re-up?<br>
<a href="https://sharemania.us/threads/the-show-2021-1080p-web-h264-bigdoc.176733/#post-3121582" class="internalLink">WEB-RiP - The.Show.2021.1080p.WEB.H264-BIGDOC | ShareMania.US</a><br>
Thanks for any help!
<div class="messageTextEndMarker">&nbsp;</div>
</blockquote>
</article>]]></description>
                <author><![CDATA[Trynuoclanh]]></author>
                </item>

                
                <item>
                <title><![CDATA[【Requests】[REQ AUD] - Sunset Rollercoaster - Vanilla Villa]]></title>
                <link><![CDATA[https://sharemania.us/threads/sunset-rollercoaster-vanilla-villa.249090/]]></link>
                <description><![CDATA[<article>
<blockquote class="messageText SelectQuoteContainer ugc baseHtml">
por pavorrr
<div class="messageTextEndMarker">&nbsp;</div>
</blockquote>
</article>]]></description>
                <author><![CDATA[lisanalgaib]]></author>
                </item>

                </channel></rss>